# xmcd
#
# Track frame offsets: 
#        150
#        12173
#        28676
#        40721
#        64997
#        79549
#        97412
#        111635
#        120491
#        133495
#        162256
#        181299
#        213386
#        251973
#        270104
#        284787
#        311841
#
# Disc length: 4367 seconds
#
# Revision: 0
# Processed by: cddbd v1.5.1PL2 Copyright (c) Steve Scherf et al.
# Submitted via: ExactAudioCopy v0.95b4
#
DISCID=03110d11
DTITLE=Howe Gelb - Pedalless - CD1
DYEAR=2002
DGENRE=Alternative
TTITLE0=tanks rolling in [CD)
TTITLE1=planet impulse
TTITLE2=hank williams radio spot [CD)
TTITLE3=shiver
TTITLE4=under a punishing sun
TTITLE5=creeper
TTITLE6=(some form of) instrumental
TTITLE7=wo ist zuhause, mama [CD)
TTITLE8=the pilgrim
TTITLE9=wolfy
TTITLE10=wayfaring stranger/fly me to the moon
TTITLE11=available space
TTITLE12=blue marble girl
TTITLE13=leather
TTITLE14=felonious
TTITLE15=sage advice
TTITLE16=four door maverick
EXTD=
EXTT0=
EXTT1=
EXTT2=
EXTT3=
EXTT4=
EXTT5=
EXTT6=
EXTT7=
EXTT8=
EXTT9=
EXTT10=
EXTT11=
EXTT12=
EXTT13=
EXTT14=
EXTT15=
EXTT16=
PLAYORDER=
